<?xml version="1.0" encoding="UTF-8" standalone="no"?>
<!DOCTYPE svg PUBLIC "-//W3C//DTD SVG 1.1//EN"
 "http://www.w3.org/Graphics/SVG/1.1/DTD/svg11.dtd">
<!-- Generated by graphviz version 2.38.0 (20140413.2041)
 -->
<!-- Title: G Pages: 1 -->
<svg width="600pt" height="2794pt"
 viewBox="0.00 0.00 600.00 2794.00" xmlns="http://www.w3.org/2000/svg" xmlns:xlink="http://www.w3.org/1999/xlink">
<g id="graph0" class="graph" transform="scale(1 1) rotate(0) translate(4 2790)">
<title>G</title>
<polygon fill="white" stroke="none" points="-4,4 -4,-2790 596,-2790 596,4 -4,4"/>
<!-- 140397282632760 -->
<g id="node1" class="node"><title>140397282632760</title>
<polygon fill="none" stroke="black" points="73.5,-2739.5 73.5,-2785.5 518.5,-2785.5 518.5,-2739.5 73.5,-2739.5"/>
<text text-anchor="middle" x="193.5" y="-2758.8" font-family="Times,serif" font-size="14.00">image_array_input: InputLayer</text>
<polyline fill="none" stroke="black" points="313.5,-2739.5 313.5,-2785.5 "/>
<text text-anchor="middle" x="347.5" y="-2770.3" font-family="Times,serif" font-size="14.00">input:</text>
<polyline fill="none" stroke="black" points="313.5,-2762.5 381.5,-2762.5 "/>
<text text-anchor="middle" x="347.5" y="-2747.3" font-family="Times,serif" font-size="14.00">output:</text>
<polyline fill="none" stroke="black" points="381.5,-2739.5 381.5,-2785.5 "/>
<text text-anchor="middle" x="450" y="-2770.3" font-family="Times,serif" font-size="14.00">(None, 48, 48, 1)</text>
<polyline fill="none" stroke="black" points="381.5,-2762.5 518.5,-2762.5 "/>
<text text-anchor="middle" x="450" y="-2747.3" font-family="Times,serif" font-size="14.00">(None, 48, 48, 1)</text>
</g>
<!-- 140397282635960 -->
<g id="node2" class="node"><title>140397282635960</title>
<polygon fill="none" stroke="black" points="103,-2656.5 103,-2702.5 489,-2702.5 489,-2656.5 103,-2656.5"/>
<text text-anchor="middle" x="189" y="-2675.8" font-family="Times,serif" font-size="14.00">image_array: Conv2D</text>
<polyline fill="none" stroke="black" points="275,-2656.5 275,-2702.5 "/>
<text text-anchor="middle" x="309" y="-2687.3" font-family="Times,serif" font-size="14.00">input:</text>
<polyline fill="none" stroke="black" points="275,-2679.5 343,-2679.5 "/>
<text text-anchor="middle" x="309" y="-2664.3" font-family="Times,serif" font-size="14.00">output:</text>
<polyline fill="none" stroke="black" points="343,-2656.5 343,-2702.5 "/>
<text text-anchor="middle" x="416" y="-2687.3" font-family="Times,serif" font-size="14.00">(None, 48, 48, 1)</text>
<polyline fill="none" stroke="black" points="343,-2679.5 489,-2679.5 "/>
<text text-anchor="middle" x="416" y="-2664.3" font-family="Times,serif" font-size="14.00">(None, 48, 48, 16)</text>
</g>
<!-- 140397282632760&#45;&gt;140397282635960 -->
<g id="edge1" class="edge"><title>140397282632760&#45;&gt;140397282635960</title>
<path fill="none" stroke="black" d="M296,-2739.37C296,-2731.15 296,-2721.66 296,-2712.73"/>
<polygon fill="black" stroke="black" points="299.5,-2712.61 296,-2702.61 292.5,-2712.61 299.5,-2712.61"/>
</g>
<!-- 140396671462872 -->
<g id="node3" class="node"><title>140396671462872</title>
<polygon fill="none" stroke="black" points="23,-2573.5 23,-2619.5 569,-2619.5 569,-2573.5 23,-2573.5"/>
<text text-anchor="middle" x="189" y="-2592.8" font-family="Times,serif" font-size="14.00">batch_normalization_1: BatchNormalization</text>
<polyline fill="none" stroke="black" points="355,-2573.5 355,-2619.5 "/>
<text text-anchor="middle" x="389" y="-2604.3" font-family="Times,serif" font-size="14.00">input:</text>
<polyline fill="none" stroke="black" points="355,-2596.5 423,-2596.5 "/>
<text text-anchor="middle" x="389" y="-2581.3" font-family="Times,serif" font-size="14.00">output:</text>
<polyline fill="none" stroke="black" points="423,-2573.5 423,-2619.5 "/>
<text text-anchor="middle" x="496" y="-2604.3" font-family="Times,serif" font-size="14.00">(None, 48, 48, 16)</text>
<polyline fill="none" stroke="black" points="423,-2596.5 569,-2596.5 "/>
<text text-anchor="middle" x="496" y="-2581.3" font-family="Times,serif" font-size="14.00">(None, 48, 48, 16)</text>
</g>
<!-- 140397282635960&#45;&gt;140396671462872 -->
<g id="edge2" class="edge"><title>140397282635960&#45;&gt;140396671462872</title>
<path fill="none" stroke="black" d="M296,-2656.37C296,-2648.15 296,-2638.66 296,-2629.73"/>
<polygon fill="black" stroke="black" points="299.5,-2629.61 296,-2619.61 292.5,-2629.61 299.5,-2629.61"/>
</g>
<!-- 140396671600120 -->
<g id="node4" class="node"><title>140396671600120</title>
<polygon fill="none" stroke="black" points="113.5,-2490.5 113.5,-2536.5 478.5,-2536.5 478.5,-2490.5 113.5,-2490.5"/>
<text text-anchor="middle" x="189" y="-2509.8" font-family="Times,serif" font-size="14.00">conv2d_1: Conv2D</text>
<polyline fill="none" stroke="black" points="264.5,-2490.5 264.5,-2536.5 "/>
<text text-anchor="middle" x="298.5" y="-2521.3" font-family="Times,serif" font-size="14.00">input:</text>
<polyline fill="none" stroke="black" points="264.5,-2513.5 332.5,-2513.5 "/>
<text text-anchor="middle" x="298.5" y="-2498.3" font-family="Times,serif" font-size="14.00">output:</text>
<polyline fill="none" stroke="black" points="332.5,-2490.5 332.5,-2536.5 "/>
<text text-anchor="middle" x="405.5" y="-2521.3" font-family="Times,serif" font-size="14.00">(None, 48, 48, 16)</text>
<polyline fill="none" stroke="black" points="332.5,-2513.5 478.5,-2513.5 "/>
<text text-anchor="middle" x="405.5" y="-2498.3" font-family="Times,serif" font-size="14.00">(None, 48, 48, 16)</text>
</g>
<!-- 140396671462872&#45;&gt;140396671600120 -->
<g id="edge3" class="edge"><title>140396671462872&#45;&gt;140396671600120</title>
<path fill="none" stroke="black" d="M296,-2573.37C296,-2565.15 296,-2555.66 296,-2546.73"/>
<polygon fill="black" stroke="black" points="299.5,-2546.61 296,-2536.61 292.5,-2546.61 299.5,-2546.61"/>
</g>
<!-- 140396671171160 -->
<g id="node5" class="node"><title>140396671171160</title>
<polygon fill="none" stroke="black" points="23,-2407.5 23,-2453.5 569,-2453.5 569,-2407.5 23,-2407.5"/>
<text text-anchor="middle" x="189" y="-2426.8" font-family="Times,serif" font-size="14.00">batch_normalization_2: BatchNormalization</text>
<polyline fill="none" stroke="black" points="355,-2407.5 355,-2453.5 "/>
<text text-anchor="middle" x="389" y="-2438.3" font-family="Times,serif" font-size="14.00">input:</text>
<polyline fill="none" stroke="black" points="355,-2430.5 423,-2430.5 "/>
<text text-anchor="middle" x="389" y="-2415.3" font-family="Times,serif" font-size="14.00">output:</text>
<polyline fill="none" stroke="black" points="423,-2407.5 423,-2453.5 "/>
<text text-anchor="middle" x="496" y="-2438.3" font-family="Times,serif" font-size="14.00">(None, 48, 48, 16)</text>
<polyline fill="none" stroke="black" points="423,-2430.5 569,-2430.5 "/>
<text text-anchor="middle" x="496" y="-2415.3" font-family="Times,serif" font-size="14.00">(None, 48, 48, 16)</text>
</g>
<!-- 140396671600120&#45;&gt;140396671171160 -->
<g id="edge4" class="edge"><title>140396671600120&#45;&gt;140396671171160</title>
<path fill="none" stroke="black" d="M296,-2490.37C296,-2482.15 296,-2472.66 296,-2463.73"/>
<polygon fill="black" stroke="black" points="299.5,-2463.61 296,-2453.61 292.5,-2463.61 299.5,-2463.61"/>
</g>
<!-- 140396670389104 -->
<g id="node6" class="node"><title>140396670389104</title>
<polygon fill="none" stroke="black" points="95.5,-2324.5 95.5,-2370.5 496.5,-2370.5 496.5,-2324.5 95.5,-2324.5"/>
<text text-anchor="middle" x="189" y="-2343.8" font-family="Times,serif" font-size="14.00">activation_1: Activation</text>
<polyline fill="none" stroke="black" points="282.5,-2324.5 282.5,-2370.5 "/>
<text text-anchor="middle" x="316.5" y="-2355.3" font-family="Times,serif" font-size="14.00">input:</text>
<polyline fill="none" stroke="black" points="282.5,-2347.5 350.5,-2347.5 "/>
<text text-anchor="middle" x="316.5" y="-2332.3" font-family="Times,serif" font-size="14.00">output:</text>
<polyline fill="none" stroke="black" points="350.5,-2324.5 350.5,-2370.5 "/>
<text text-anchor="middle" x="423.5" y="-2355.3" font-family="Times,serif" font-size="14.00">(None, 48, 48, 16)</text>
<polyline fill="none" stroke="black" points="350.5,-2347.5 496.5,-2347.5 "/>
<text text-anchor="middle" x="423.5" y="-2332.3" font-family="Times,serif" font-size="14.00">(None, 48, 48, 16)</text>
</g>
<!-- 140396671171160&#45;&gt;140396670389104 -->
<g id="edge5" class="edge"><title>140396671171160&#45;&gt;140396670389104</title>
<path fill="none" stroke="black" d="M296,-2407.37C296,-2399.15 296,-2389.66 296,-2380.73"/>
<polygon fill="black" stroke="black" points="299.5,-2380.61 296,-2370.61 292.5,-2380.61 299.5,-2380.61"/>
</g>
<!-- 140396670460928 -->
<g id="node7" class="node"><title>140396670460928</title>
<polygon fill="none" stroke="black" points="35,-2241.5 35,-2287.5 557,-2287.5 557,-2241.5 35,-2241.5"/>
<text text-anchor="middle" x="189" y="-2260.8" font-family="Times,serif" font-size="14.00">average_pooling2d_1: AveragePooling2D</text>
<polyline fill="none" stroke="black" points="343,-2241.5 343,-2287.5 "/>
<text text-anchor="middle" x="377" y="-2272.3" font-family="Times,serif" font-size="14.00">input:</text>
<polyline fill="none" stroke="black" points="343,-2264.5 411,-2264.5 "/>
<text text-anchor="middle" x="377" y="-2249.3" font-family="Times,serif" font-size="14.00">output:</text>
<polyline fill="none" stroke="black" points="411,-2241.5 411,-2287.5 "/>
<text text-anchor="middle" x="484" y="-2272.3" font-family="Times,serif" font-size="14.00">(None, 48, 48, 16)</text>
<polyline fill="none" stroke="black" points="411,-2264.5 557,-2264.5 "/>
<text text-anchor="middle" x="484" y="-2249.3" font-family="Times,serif" font-size="14.00">(None, 24, 24, 16)</text>
</g>
<!-- 140396670389104&#45;&gt;140396670460928 -->
<g id="edge6" class="edge"><title>140396670389104&#45;&gt;140396670460928</title>
<path fill="none" stroke="black" d="M296,-2324.37C296,-2316.15 296,-2306.66 296,-2297.73"/>
<polygon fill="black" stroke="black" points="299.5,-2297.61 296,-2287.61 292.5,-2297.61 299.5,-2297.61"/>
</g>
<!-- 140396670584032 -->
<g id="node8" class="node"><title>140396670584032</title>
<polygon fill="none" stroke="black" points="110.5,-2158.5 110.5,-2204.5 481.5,-2204.5 481.5,-2158.5 110.5,-2158.5"/>
<text text-anchor="middle" x="189" y="-2177.8" font-family="Times,serif" font-size="14.00">dropout_1: Dropout</text>
<polyline fill="none" stroke="black" points="267.5,-2158.5 267.5,-2204.5 "/>
<text text-anchor="middle" x="301.5" y="-2189.3" font-family="Times,serif" font-size="14.00">input:</text>
<polyline fill="none" stroke="black" points="267.5,-2181.5 335.5,-2181.5 "/>
<text text-anchor="middle" x="301.5" y="-2166.3" font-family="Times,serif" font-size="14.00">output:</text>
<polyline fill="none" stroke="black" points="335.5,-2158.5 335.5,-2204.5 "/>
<text text-anchor="middle" x="408.5" y="-2189.3" font-family="Times,serif" font-size="14.00">(None, 24, 24, 16)</text>
<polyline fill="none" stroke="black" points="335.5,-2181.5 481.5,-2181.5 "/>
<text text-anchor="middle" x="408.5" y="-2166.3" font-family="Times,serif" font-size="14.00">(None, 24, 24, 16)</text>
</g>
<!-- 140396670460928&#45;&gt;140396670584032 -->
<g id="edge7" class="edge"><title>140396670460928&#45;&gt;140396670584032</title>
<path fill="none" stroke="black" d="M296,-2241.37C296,-2233.15 296,-2223.66 296,-2214.73"/>
<polygon fill="black" stroke="black" points="299.5,-2214.61 296,-2204.61 292.5,-2214.61 299.5,-2214.61"/>
</g>
<!-- 140396670584200 -->
<g id="node9" class="node"><title>140396670584200</title>
<polygon fill="none" stroke="black" points="113.5,-2075.5 113.5,-2121.5 478.5,-2121.5 478.5,-2075.5 113.5,-2075.5"/>
<text text-anchor="middle" x="189" y="-2094.8" font-family="Times,serif" font-size="14.00">conv2d_2: Conv2D</text>
<polyline fill="none" stroke="black" points="264.5,-2075.5 264.5,-2121.5 "/>
<text text-anchor="middle" x="298.5" y="-2106.3" font-family="Times,serif" font-size="14.00">input:</text>
<polyline fill="none" stroke="black" points="264.5,-2098.5 332.5,-2098.5 "/>
<text text-anchor="middle" x="298.5" y="-2083.3" font-family="Times,serif" font-size="14.00">output:</text>
<polyline fill="none" stroke="black" points="332.5,-2075.5 332.5,-2121.5 "/>
<text text-anchor="middle" x="405.5" y="-2106.3" font-family="Times,serif" font-size="14.00">(None, 24, 24, 16)</text>
<polyline fill="none" stroke="black" points="332.5,-2098.5 478.5,-2098.5 "/>
<text text-anchor="middle" x="405.5" y="-2083.3" font-family="Times,serif" font-size="14.00">(None, 24, 24, 32)</text>
</g>
<!-- 140396670584032&#45;&gt;140396670584200 -->
<g id="edge8" class="edge"><title>140396670584032&#45;&gt;140396670584200</title>
<path fill="none" stroke="black" d="M296,-2158.37C296,-2150.15 296,-2140.66 296,-2131.73"/>
<polygon fill="black" stroke="black" points="299.5,-2131.61 296,-2121.61 292.5,-2131.61 299.5,-2131.61"/>
</g>
<!-- 140396671327368 -->
<g id="node10" class="node"><title>140396671327368</title>
<polygon fill="none" stroke="black" points="23,-1992.5 23,-2038.5 569,-2038.5 569,-1992.5 23,-1992.5"/>
<text text-anchor="middle" x="189" y="-2011.8" font-family="Times,serif" font-size="14.00">batch_normalization_3: BatchNormalization</text>
<polyline fill="none" stroke="black" points="355,-1992.5 355,-2038.5 "/>
<text text-anchor="middle" x="389" y="-2023.3" font-family="Times,serif" font-size="14.00">input:</text>
<polyline fill="none" stroke="black" points="355,-2015.5 423,-2015.5 "/>
<text text-anchor="middle" x="389" y="-2000.3" font-family="Times,serif" font-size="14.00">output:</text>
<polyline fill="none" stroke="black" points="423,-1992.5 423,-2038.5 "/>
<text text-anchor="middle" x="496" y="-2023.3" font-family="Times,serif" font-size="14.00">(None, 24, 24, 32)</text>
<polyline fill="none" stroke="black" points="423,-2015.5 569,-2015.5 "/>
<text text-anchor="middle" x="496" y="-2000.3" font-family="Times,serif" font-size="14.00">(None, 24, 24, 32)</text>
</g>
<!-- 140396670584200&#45;&gt;140396671327368 -->
<g id="edge9" class="edge"><title>140396670584200&#45;&gt;140396671327368</title>
<path fill="none" stroke="black" d="M296,-2075.37C296,-2067.15 296,-2057.66 296,-2048.73"/>
<polygon fill="black" stroke="black" points="299.5,-2048.61 296,-2038.61 292.5,-2048.61 299.5,-2048.61"/>
</g>
<!-- 140396670045880 -->
<g id="node11" class="node"><title>140396670045880</title>
<polygon fill="none" stroke="black" points="113.5,-1909.5 113.5,-1955.5 478.5,-1955.5 478.5,-1909.5 113.5,-1909.5"/>
<text text-anchor="middle" x="189" y="-1928.8" font-family="Times,serif" font-size="14.00">conv2d_3: Conv2D</text>
<polyline fill="none" stroke="black" points="264.5,-1909.5 264.5,-1955.5 "/>
<text text-anchor="middle" x="298.5" y="-1940.3" font-family="Times,serif" font-size="14.00">input:</text>
<polyline fill="none" stroke="black" points="264.5,-1932.5 332.5,-1932.5 "/>
<text text-anchor="middle" x="298.5" y="-1917.3" font-family="Times,serif" font-size="14.00">output:</text>
<polyline fill="none" stroke="black" points="332.5,-1909.5 332.5,-1955.5 "/>
<text text-anchor="middle" x="405.5" y="-1940.3" font-family="Times,serif" font-size="14.00">(None, 24, 24, 32)</text>
<polyline fill="none" stroke="black" points="332.5,-1932.5 478.5,-1932.5 "/>
<text text-anchor="middle" x="405.5" y="-1917.3" font-family="Times,serif" font-size="14.00">(None, 24, 24, 32)</text>
</g>
<!-- 140396671327368&#45;&gt;140396670045880 -->
<g id="edge10" class="edge"><title>140396671327368&#45;&gt;140396670045880</title>
<path fill="none" stroke="black" d="M296,-1992.37C296,-1984.15 296,-1974.66 296,-1965.73"/>
<polygon fill="black" stroke="black" points="299.5,-1965.61 296,-1955.61 292.5,-1965.61 299.5,-1965.61"/>
</g>
<!-- 140396650585000 -->
<g id="node12" class="node"><title>140396650585000</title>
<polygon fill="none" stroke="black" points="23,-1826.5 23,-1872.5 569,-1872.5 569,-1826.5 23,-1826.5"/>
<text text-anchor="middle" x="189" y="-1845.8" font-family="Times,serif" font-size="14.00">batch_normalization_4: BatchNormalization</text>
<polyline fill="none" stroke="black" points="355,-1826.5 355,-1872.5 "/>
<text text-anchor="middle" x="389" y="-1857.3" font-family="Times,serif" font-size="14.00">input:</text>
<polyline fill="none" stroke="black" points="355,-1849.5 423,-1849.5 "/>
<text text-anchor="middle" x="389" y="-1834.3" font-family="Times,serif" font-size="14.00">output:</text>
<polyline fill="none" stroke="black" points="423,-1826.5 423,-1872.5 "/>
<text text-anchor="middle" x="496" y="-1857.3" font-family="Times,serif" font-size="14.00">(None, 24, 24, 32)</text>
<polyline fill="none" stroke="black" points="423,-1849.5 569,-1849.5 "/>
<text text-anchor="middle" x="496" y="-1834.3" font-family="Times,serif" font-size="14.00">(None, 24, 24, 32)</text>
</g>
<!-- 140396670045880&#45;&gt;140396650585000 -->
<g id="edge11" class="edge"><title>140396670045880&#45;&gt;140396650585000</title>
<path fill="none" stroke="black" d="M296,-1909.37C296,-1901.15 296,-1891.66 296,-1882.73"/>
<polygon fill="black" stroke="black" points="299.5,-1882.61 296,-1872.61 292.5,-1882.61 299.5,-1882.61"/>
</g>
<!-- 140396650707264 -->
<g id="node13" class="node"><title>140396650707264</title>
<polygon fill="none" stroke="black" points="95.5,-1743.5 95.5,-1789.5 496.5,-1789.5 496.5,-1743.5 95.5,-1743.5"/>
<text text-anchor="middle" x="189" y="-1762.8" font-family="Times,serif" font-size="14.00">activation_2: Activation</text>
<polyline fill="none" stroke="black" points="282.5,-1743.5 282.5,-1789.5 "/>
<text text-anchor="middle" x="316.5" y="-1774.3" font-family="Times,serif" font-size="14.00">input:</text>
<polyline fill="none" stroke="black" points="282.5,-1766.5 350.5,-1766.5 "/>
<text text-anchor="middle" x="316.5" y="-1751.3" font-family="Times,serif" font-size="14.00">output:</text>
<polyline fill="none" stroke="black" points="350.5,-1743.5 350.5,-1789.5 "/>
<text text-anchor="middle" x="423.5" y="-1774.3" font-family="Times,serif" font-size="14.00">(None, 24, 24, 32)</text>
<polyline fill="none" stroke="black" points="350.5,-1766.5 496.5,-1766.5 "/>
<text text-anchor="middle" x="423.5" y="-1751.3" font-family="Times,serif" font-size="14.00">(None, 24, 24, 32)</text>
</g>
<!-- 140396650585000&#45;&gt;140396650707264 -->
<g id="edge12" class="edge"><title>140396650585000&#45;&gt;140396650707264</title>
<path fill="none" stroke="black" d="M296,-1826.37C296,-1818.15 296,-1808.66 296,-1799.73"/>
<polygon fill="black" stroke="black" points="299.5,-1799.61 296,-1789.61 292.5,-1799.61 299.5,-1799.61"/>
</g>
<!-- 140396650128552 -->
<g id="node14" class="node"><title>140396650128552</title>
<polygon fill="none" stroke="black" points="35,-1660.5 35,-1706.5 557,-1706.5 557,-1660.5 35,-1660.5"/>
<text text-anchor="middle" x="189" y="-1679.8" font-family="Times,serif" font-size="14.00">average_pooling2d_2: AveragePooling2D</text>
<polyline fill="none" stroke="black" points="343,-1660.5 343,-1706.5 "/>
<text text-anchor="middle" x="377" y="-1691.3" font-family="Times,serif" font-size="14.00">input:</text>
<polyline fill="none" stroke="black" points="343,-1683.5 411,-1683.5 "/>
<text text-anchor="middle" x="377" y="-1668.3" font-family="Times,serif" font-size="14.00">output:</text>
<polyline fill="none" stroke="black" points="411,-1660.5 411,-1706.5 "/>
<text text-anchor="middle" x="484" y="-1691.3" font-family="Times,serif" font-size="14.00">(None, 24, 24, 32)</text>
<polyline fill="none" stroke="black" points="411,-1683.5 557,-1683.5 "/>
<text text-anchor="middle" x="484" y="-1668.3" font-family="Times,serif" font-size="14.00">(None, 12, 12, 32)</text>
</g>
<!-- 140396650707264&#45;&gt;140396650128552 -->
<g id="edge13" class="edge"><title>140396650707264&#45;&gt;140396650128552</title>
<path fill="none" stroke="black" d="M296,-1743.37C296,-1735.15 296,-1725.66 296,-1716.73"/>
<polygon fill="black" stroke="black" points="299.5,-1716.61 296,-1706.61 292.5,-1716.61 299.5,-1716.61"/>
</g>
<!-- 140396650256424 -->
<g id="node15" class="node"><title>140396650256424</title>
<polygon fill="none" stroke="black" points="110.5,-1577.5 110.5,-1623.5 481.5,-1623.5 481.5,-1577.5 110.5,-1577.5"/>
<text text-anchor="middle" x="189" y="-1596.8" font-family="Times,serif" font-size="14.00">dropout_2: Dropout</text>
<polyline fill="none" stroke="black" points="267.5,-1577.5 267.5,-1623.5 "/>
<text text-anchor="middle" x="301.5" y="-1608.3" font-family="Times,serif" font-size="14.00">input:</text>
<polyline fill="none" stroke="black" points="267.5,-1600.5 335.5,-1600.5 "/>
<text text-anchor="middle" x="301.5" y="-1585.3" font-family="Times,serif" font-size="14.00">output:</text>
<polyline fill="none" stroke="black" points="335.5,-1577.5 335.5,-1623.5 "/>
<text text-anchor="middle" x="408.5" y="-1608.3" font-family="Times,serif" font-size="14.00">(None, 12, 12, 32)</text>
<polyline fill="none" stroke="black" points="335.5,-1600.5 481.5,-1600.5 "/>
<text text-anchor="middle" x="408.5" y="-1585.3" font-family="Times,serif" font-size="14.00">(None, 12, 12, 32)</text>
</g>
<!-- 140396650128552&#45;&gt;140396650256424 -->
<g id="edge14" class="edge"><title>140396650128552&#45;&gt;140396650256424</title>
<path fill="none" stroke="black" d="M296,-1660.37C296,-1652.15 296,-1642.66 296,-1633.73"/>
<polygon fill="black" stroke="black" points="299.5,-1633.61 296,-1623.61 292.5,-1633.61 299.5,-1633.61"/>
</g>
<!-- 140396650256592 -->
<g id="node16" class="node"><title>140396650256592</title>
<polygon fill="none" stroke="black" points="113.5,-1494.5 113.5,-1540.5 478.5,-1540.5 478.5,-1494.5 113.5,-1494.5"/>
<text text-anchor="middle" x="189" y="-1513.8" font-family="Times,serif" font-size="14.00">conv2d_4: Conv2D</text>
<polyline fill="none" stroke="black" points="264.5,-1494.5 264.5,-1540.5 "/>
<text text-anchor="middle" x="298.5" y="-1525.3" font-family="Times,serif" font-size="14.00">input:</text>
<polyline fill="none" stroke="black" points="264.5,-1517.5 332.5,-1517.5 "/>
<text text-anchor="middle" x="298.5" y="-1502.3" font-family="Times,serif" font-size="14.00">output:</text>
<polyline fill="none" stroke="black" points="332.5,-1494.5 332.5,-1540.5 "/>
<text text-anchor="middle" x="405.5" y="-1525.3" font-family="Times,serif" font-size="14.00">(None, 12, 12, 32)</text>
<polyline fill="none" stroke="black" points="332.5,-1517.5 478.5,-1517.5 "/>
<text text-anchor="middle" x="405.5" y="-1502.3" font-family="Times,serif" font-size="14.00">(None, 12, 12, 64)</text>
</g>
<!-- 140396650256424&#45;&gt;140396650256592 -->
<g id="edge15" class="edge"><title>140396650256424&#45;&gt;140396650256592</title>
<path fill="none" stroke="black" d="M296,-1577.37C296,-1569.15 296,-1559.66 296,-1550.73"/>
<polygon fill="black" stroke="black" points="299.5,-1550.61 296,-1540.61 292.5,-1550.61 299.5,-1550.61"/>
</g>
<!-- 140396649678272 -->
<g id="node17" class="node"><title>140396649678272</title>
<polygon fill="none" stroke="black" points="23,-1411.5 23,-1457.5 569,-1457.5 569,-1411.5 23,-1411.5"/>
<text text-anchor="middle" x="189" y="-1430.8" font-family="Times,serif" font-size="14.00">batch_normalization_5: BatchNormalization</text>
<polyline fill="none" stroke="black" points="355,-1411.5 355,-1457.5 "/>
<text text-anchor="middle" x="389" y="-1442.3" font-family="Times,serif" font-size="14.00">input:</text>
<polyline fill="none" stroke="black" points="355,-1434.5 423,-1434.5 "/>
<text text-anchor="middle" x="389" y="-1419.3" font-family="Times,serif" font-size="14.00">output:</text>
<polyline fill="none" stroke="black" points="423,-1411.5 423,-1457.5 "/>
<text text-anchor="middle" x="496" y="-1442.3" font-family="Times,serif" font-size="14.00">(None, 12, 12, 64)</text>
<polyline fill="none" stroke="black" points="423,-1434.5 569,-1434.5 "/>
<text text-anchor="middle" x="496" y="-1419.3" font-family="Times,serif" font-size="14.00">(None, 12, 12, 64)</text>
</g>
<!-- 140396650256592&#45;&gt;140396649678272 -->
<g id="edge16" class="edge"><title>140396650256592&#45;&gt;140396649678272</title>
<path fill="none" stroke="black" d="M296,-1494.37C296,-1486.15 296,-1476.66 296,-1467.73"/>
<polygon fill="black" stroke="black" points="299.5,-1467.61 296,-1457.61 292.5,-1467.61 299.5,-1467.61"/>
</g>
<!-- 140396649294760 -->
<g id="node18" class="node"><title>140396649294760</title>
<polygon fill="none" stroke="black" points="113.5,-1328.5 113.5,-1374.5 478.5,-1374.5 478.5,-1328.5 113.5,-1328.5"/>
<text text-anchor="middle" x="189" y="-1347.8" font-family="Times,serif" font-size="14.00">conv2d_5: Conv2D</text>
<polyline fill="none" stroke="black" points="264.5,-1328.5 264.5,-1374.5 "/>
<text text-anchor="middle" x="298.5" y="-1359.3" font-family="Times,serif" font-size="14.00">input:</text>
<polyline fill="none" stroke="black" points="264.5,-1351.5 332.5,-1351.5 "/>
<text text-anchor="middle" x="298.5" y="-1336.3" font-family="Times,serif" font-size="14.00">output:</text>
<polyline fill="none" stroke="black" points="332.5,-1328.5 332.5,-1374.5 "/>
<text text-anchor="middle" x="405.5" y="-1359.3" font-family="Times,serif" font-size="14.00">(None, 12, 12, 64)</text>
<polyline fill="none" stroke="black" points="332.5,-1351.5 478.5,-1351.5 "/>
<text text-anchor="middle" x="405.5" y="-1336.3" font-family="Times,serif" font-size="14.00">(None, 12, 12, 64)</text>
</g>
<!-- 140396649678272&#45;&gt;140396649294760 -->
<g id="edge17" class="edge"><title>140396649678272&#45;&gt;140396649294760</title>
<path fill="none" stroke="black" d="M296,-1411.37C296,-1403.15 296,-1393.66 296,-1384.73"/>
<polygon fill="black" stroke="black" points="299.5,-1384.61 296,-1374.61 292.5,-1384.61 299.5,-1384.61"/>
</g>
<!-- 140396649350200 -->
<g id="node19" class="node"><title>140396649350200</title>
<polygon fill="none" stroke="black" points="23,-1245.5 23,-1291.5 569,-1291.5 569,-1245.5 23,-1245.5"/>
<text text-anchor="middle" x="189" y="-1264.8" font-family="Times,serif" font-size="14.00">batch_normalization_6: BatchNormalization</text>
<polyline fill="none" stroke="black" points="355,-1245.5 355,-1291.5 "/>
<text text-anchor="middle" x="389" y="-1276.3" font-family="Times,serif" font-size="14.00">input:</text>
<polyline fill="none" stroke="black" points="355,-1268.5 423,-1268.5 "/>
<text text-anchor="middle" x="389" y="-1253.3" font-family="Times,serif" font-size="14.00">output:</text>
<polyline fill="none" stroke="black" points="423,-1245.5 423,-1291.5 "/>
<text text-anchor="middle" x="496" y="-1276.3" font-family="Times,serif" font-size="14.00">(None, 12, 12, 64)</text>
<polyline fill="none" stroke="black" points="423,-1268.5 569,-1268.5 "/>
<text text-anchor="middle" x="496" y="-1253.3" font-family="Times,serif" font-size="14.00">(None, 12, 12, 64)</text>
</g>
<!-- 140396649294760&#45;&gt;140396649350200 -->
<g id="edge18" class="edge"><title>140396649294760&#45;&gt;140396649350200</title>
<path fill="none" stroke="black" d="M296,-1328.37C296,-1320.15 296,-1310.66 296,-1301.73"/>
<polygon fill="black" stroke="black" points="299.5,-1301.61 296,-1291.61 292.5,-1301.61 299.5,-1301.61"/>
</g>
<!-- 140396649483232 -->
<g id="node20" class="node"><title>140396649483232</title>
<polygon fill="none" stroke="black" points="95.5,-1162.5 95.5,-1208.5 496.5,-1208.5 496.5,-1162.5 95.5,-1162.5"/>
<text text-anchor="middle" x="189" y="-1181.8" font-family="Times,serif" font-size="14.00">activation_3: Activation</text>
<polyline fill="none" stroke="black" points="282.5,-1162.5 282.5,-1208.5 "/>
<text text-anchor="middle" x="316.5" y="-1193.3" font-family="Times,serif" font-size="14.00">input:</text>
<polyline fill="none" stroke="black" points="282.5,-1185.5 350.5,-1185.5 "/>
<text text-anchor="middle" x="316.5" y="-1170.3" font-family="Times,serif" font-size="14.00">output:</text>
<polyline fill="none" stroke="black" points="350.5,-1162.5 350.5,-1208.5 "/>
<text text-anchor="middle" x="423.5" y="-1193.3" font-family="Times,serif" font-size="14.00">(None, 12, 12, 64)</text>
<polyline fill="none" stroke="black" points="350.5,-1185.5 496.5,-1185.5 "/>
<text text-anchor="middle" x="423.5" y="-1170.3" font-family="Times,serif" font-size="14.00">(None, 12, 12, 64)</text>
</g>
<!-- 140396649350200&#45;&gt;140396649483232 -->
<g id="edge19" class="edge"><title>140396649350200&#45;&gt;140396649483232</title>
<path fill="none" stroke="black" d="M296,-1245.37C296,-1237.15 296,-1227.66 296,-1218.73"/>
<polygon fill="black" stroke="black" points="299.5,-1218.61 296,-1208.61 292.5,-1218.61 299.5,-1218.61"/>
</g>
<!-- 140396644456936 -->
<g id="node21" class="node"><title>140396644456936</title>
<polygon fill="none" stroke="black" points="35,-1079.5 35,-1125.5 557,-1125.5 557,-1079.5 35,-1079.5"/>
<text text-anchor="middle" x="189" y="-1098.8" font-family="Times,serif" font-size="14.00">average_pooling2d_3: AveragePooling2D</text>
<polyline fill="none" stroke="black" points="343,-1079.5 343,-1125.5 "/>
<text text-anchor="middle" x="377" y="-1110.3" font-family="Times,serif" font-size="14.00">input:</text>
<polyline fill="none" stroke="black" points="343,-1102.5 411,-1102.5 "/>
<text text-anchor="middle" x="377" y="-1087.3" font-family="Times,serif" font-size="14.00">output:</text>
<polyline fill="none" stroke="black" points="411,-1079.5 411,-1125.5 "/>
<text text-anchor="middle" x="484" y="-1110.3" font-family="Times,serif" font-size="14.00">(None, 12, 12, 64)</text>
<polyline fill="none" stroke="black" points="411,-1102.5 557,-1102.5 "/>
<text text-anchor="middle" x="484" y="-1087.3" font-family="Times,serif" font-size="14.00">(None, 6, 6, 64)</text>
</g>
<!-- 140396649483232&#45;&gt;140396644456936 -->
<g id="edge20" class="edge"><title>140396649483232&#45;&gt;140396644456936</title>
<path fill="none" stroke="black" d="M296,-1162.37C296,-1154.15 296,-1144.66 296,-1135.73"/>
<polygon fill="black" stroke="black" points="299.5,-1135.61 296,-1125.61 292.5,-1135.61 299.5,-1135.61"/>
</g>
<!-- 140396644055752 -->
<g id="node22" class="node"><title>140396644055752</title>
<polygon fill="none" stroke="black" points="119.5,-996.5 119.5,-1042.5 472.5,-1042.5 472.5,-996.5 119.5,-996.5"/>
<text text-anchor="middle" x="198" y="-1015.8" font-family="Times,serif" font-size="14.00">dropout_3: Dropout</text>
<polyline fill="none" stroke="black" points="276.5,-996.5 276.5,-1042.5 "/>
<text text-anchor="middle" x="310.5" y="-1027.3" font-family="Times,serif" font-size="14.00">input:</text>
<polyline fill="none" stroke="black" points="276.5,-1019.5 344.5,-1019.5 "/>
<text text-anchor="middle" x="310.5" y="-1004.3" font-family="Times,serif" font-size="14.00">output:</text>
<polyline fill="none" stroke="black" points="344.5,-996.5 344.5,-1042.5 "/>
<text text-anchor="middle" x="408.5" y="-1027.3" font-family="Times,serif" font-size="14.00">(None, 6, 6, 64)</text>
<polyline fill="none" stroke="black" points="344.5,-1019.5 472.5,-1019.5 "/>
<text text-anchor="middle" x="408.5" y="-1004.3" font-family="Times,serif" font-size="14.00">(None, 6, 6, 64)</text>
</g>
<!-- 140396644456936&#45;&gt;140396644055752 -->
<g id="edge21" class="edge"><title>140396644456936&#45;&gt;140396644055752</title>
<path fill="none" stroke="black" d="M296,-1079.37C296,-1071.15 296,-1061.66 296,-1052.73"/>
<polygon fill="black" stroke="black" points="299.5,-1052.61 296,-1042.61 292.5,-1052.61 299.5,-1052.61"/>
</g>
<!-- 140396643770096 -->
<g id="node23" class="node"><title>140396643770096</title>
<polygon fill="none" stroke="black" points="118,-913.5 118,-959.5 474,-959.5 474,-913.5 118,-913.5"/>
<text text-anchor="middle" x="193.5" y="-932.8" font-family="Times,serif" font-size="14.00">conv2d_6: Conv2D</text>
<polyline fill="none" stroke="black" points="269,-913.5 269,-959.5 "/>
<text text-anchor="middle" x="303" y="-944.3" font-family="Times,serif" font-size="14.00">input:</text>
<polyline fill="none" stroke="black" points="269,-936.5 337,-936.5 "/>
<text text-anchor="middle" x="303" y="-921.3" font-family="Times,serif" font-size="14.00">output:</text>
<polyline fill="none" stroke="black" points="337,-913.5 337,-959.5 "/>
<text text-anchor="middle" x="405.5" y="-944.3" font-family="Times,serif" font-size="14.00">(None, 6, 6, 64)</text>
<polyline fill="none" stroke="black" points="337,-936.5 474,-936.5 "/>
<text text-anchor="middle" x="405.5" y="-921.3" font-family="Times,serif" font-size="14.00">(None, 6, 6, 128)</text>
</g>
<!-- 140396644055752&#45;&gt;140396643770096 -->
<g id="edge22" class="edge"><title>140396644055752&#45;&gt;140396643770096</title>
<path fill="none" stroke="black" d="M296,-996.366C296,-988.152 296,-978.658 296,-969.725"/>
<polygon fill="black" stroke="black" points="299.5,-969.607 296,-959.607 292.5,-969.607 299.5,-969.607"/>
</g>
<!-- 140396643493984 -->
<g id="node24" class="node"><title>140396643493984</title>
<polygon fill="none" stroke="black" points="27.5,-830.5 27.5,-876.5 564.5,-876.5 564.5,-830.5 27.5,-830.5"/>
<text text-anchor="middle" x="193.5" y="-849.8" font-family="Times,serif" font-size="14.00">batch_normalization_7: BatchNormalization</text>
<polyline fill="none" stroke="black" points="359.5,-830.5 359.5,-876.5 "/>
<text text-anchor="middle" x="393.5" y="-861.3" font-family="Times,serif" font-size="14.00">input:</text>
<polyline fill="none" stroke="black" points="359.5,-853.5 427.5,-853.5 "/>
<text text-anchor="middle" x="393.5" y="-838.3" font-family="Times,serif" font-size="14.00">output:</text>
<polyline fill="none" stroke="black" points="427.5,-830.5 427.5,-876.5 "/>
<text text-anchor="middle" x="496" y="-861.3" font-family="Times,serif" font-size="14.00">(None, 6, 6, 128)</text>
<polyline fill="none" stroke="black" points="427.5,-853.5 564.5,-853.5 "/>
<text text-anchor="middle" x="496" y="-838.3" font-family="Times,serif" font-size="14.00">(None, 6, 6, 128)</text>
</g>
<!-- 140396643770096&#45;&gt;140396643493984 -->
<g id="edge23" class="edge"><title>140396643770096&#45;&gt;140396643493984</title>
<path fill="none" stroke="black" d="M296,-913.366C296,-905.152 296,-895.658 296,-886.725"/>
<polygon fill="black" stroke="black" points="299.5,-886.607 296,-876.607 292.5,-886.607 299.5,-886.607"/>
</g>
<!-- 140396643559128 -->
<g id="node25" class="node"><title>140396643559128</title>
<polygon fill="none" stroke="black" points="118,-747.5 118,-793.5 474,-793.5 474,-747.5 118,-747.5"/>
<text text-anchor="middle" x="193.5" y="-766.8" font-family="Times,serif" font-size="14.00">conv2d_7: Conv2D</text>
<polyline fill="none" stroke="black" points="269,-747.5 269,-793.5 "/>
<text text-anchor="middle" x="303" y="-778.3" font-family="Times,serif" font-size="14.00">input:</text>
<polyline fill="none" stroke="black" points="269,-770.5 337,-770.5 "/>
<text text-anchor="middle" x="303" y="-755.3" font-family="Times,serif" font-size="14.00">output:</text>
<polyline fill="none" stroke="black" points="337,-747.5 337,-793.5 "/>
<text text-anchor="middle" x="405.5" y="-778.3" font-family="Times,serif" font-size="14.00">(None, 6, 6, 128)</text>
<polyline fill="none" stroke="black" points="337,-770.5 474,-770.5 "/>
<text text-anchor="middle" x="405.5" y="-755.3" font-family="Times,serif" font-size="14.00">(None, 6, 6, 128)</text>
</g>
<!-- 140396643493984&#45;&gt;140396643559128 -->
<g id="edge24" class="edge"><title>140396643493984&#45;&gt;140396643559128</title>
<path fill="none" stroke="black" d="M296,-830.366C296,-822.152 296,-812.658 296,-803.725"/>
<polygon fill="black" stroke="black" points="299.5,-803.607 296,-793.607 292.5,-803.607 299.5,-803.607"/>
</g>
<!-- 140396643689528 -->
<g id="node26" class="node"><title>140396643689528</title>
<polygon fill="none" stroke="black" points="27.5,-664.5 27.5,-710.5 564.5,-710.5 564.5,-664.5 27.5,-664.5"/>
<text text-anchor="middle" x="193.5" y="-683.8" font-family="Times,serif" font-size="14.00">batch_normalization_8: BatchNormalization</text>
<polyline fill="none" stroke="black" points="359.5,-664.5 359.5,-710.5 "/>
<text text-anchor="middle" x="393.5" y="-695.3" font-family="Times,serif" font-size="14.00">input:</text>
<polyline fill="none" stroke="black" points="359.5,-687.5 427.5,-687.5 "/>
<text text-anchor="middle" x="393.5" y="-672.3" font-family="Times,serif" font-size="14.00">output:</text>
<polyline fill="none" stroke="black" points="427.5,-664.5 427.5,-710.5 "/>
<text text-anchor="middle" x="496" y="-695.3" font-family="Times,serif" font-size="14.00">(None, 6, 6, 128)</text>
<polyline fill="none" stroke="black" points="427.5,-687.5 564.5,-687.5 "/>
<text text-anchor="middle" x="496" y="-672.3" font-family="Times,serif" font-size="14.00">(None, 6, 6, 128)</text>
</g>
<!-- 140396643559128&#45;&gt;140396643689528 -->
<g id="edge25" class="edge"><title>140396643559128&#45;&gt;140396643689528</title>
<path fill="none" stroke="black" d="M296,-747.366C296,-739.152 296,-729.658 296,-720.725"/>
<polygon fill="black" stroke="black" points="299.5,-720.607 296,-710.607 292.5,-720.607 299.5,-720.607"/>
</g>
<!-- 140396643297376 -->
<g id="node27" class="node"><title>140396643297376</title>
<polygon fill="none" stroke="black" points="100,-581.5 100,-627.5 492,-627.5 492,-581.5 100,-581.5"/>
<text text-anchor="middle" x="193.5" y="-600.8" font-family="Times,serif" font-size="14.00">activation_4: Activation</text>
<polyline fill="none" stroke="black" points="287,-581.5 287,-627.5 "/>
<text text-anchor="middle" x="321" y="-612.3" font-family="Times,serif" font-size="14.00">input:</text>
<polyline fill="none" stroke="black" points="287,-604.5 355,-604.5 "/>
<text text-anchor="middle" x="321" y="-589.3" font-family="Times,serif" font-size="14.00">output:</text>
<polyline fill="none" stroke="black" points="355,-581.5 355,-627.5 "/>
<text text-anchor="middle" x="423.5" y="-612.3" font-family="Times,serif" font-size="14.00">(None, 6, 6, 128)</text>
<polyline fill="none" stroke="black" points="355,-604.5 492,-604.5 "/>
<text text-anchor="middle" x="423.5" y="-589.3" font-family="Times,serif" font-size="14.00">(None, 6, 6, 128)</text>
</g>
<!-- 140396643689528&#45;&gt;140396643297376 -->
<g id="edge26" class="edge"><title>140396643689528&#45;&gt;140396643297376</title>
<path fill="none" stroke="black" d="M296,-664.366C296,-656.152 296,-646.658 296,-637.725"/>
<polygon fill="black" stroke="black" points="299.5,-637.607 296,-627.607 292.5,-637.607 299.5,-637.607"/>
</g>
<!-- 140396642731064 -->
<g id="node28" class="node"><title>140396642731064</title>
<polygon fill="none" stroke="black" points="39.5,-498.5 39.5,-544.5 552.5,-544.5 552.5,-498.5 39.5,-498.5"/>
<text text-anchor="middle" x="193.5" y="-517.8" font-family="Times,serif" font-size="14.00">average_pooling2d_4: AveragePooling2D</text>
<polyline fill="none" stroke="black" points="347.5,-498.5 347.5,-544.5 "/>
<text text-anchor="middle" x="381.5" y="-529.3" font-family="Times,serif" font-size="14.00">input:</text>
<polyline fill="none" stroke="black" points="347.5,-521.5 415.5,-521.5 "/>
<text text-anchor="middle" x="381.5" y="-506.3" font-family="Times,serif" font-size="14.00">output:</text>
<polyline fill="none" stroke="black" points="415.5,-498.5 415.5,-544.5 "/>
<text text-anchor="middle" x="484" y="-529.3" font-family="Times,serif" font-size="14.00">(None, 6, 6, 128)</text>
<polyline fill="none" stroke="black" points="415.5,-521.5 552.5,-521.5 "/>
<text text-anchor="middle" x="484" y="-506.3" font-family="Times,serif" font-size="14.00">(None, 3, 3, 128)</text>
</g>
<!-- 140396643297376&#45;&gt;140396642731064 -->
<g id="edge27" class="edge"><title>140396643297376&#45;&gt;140396642731064</title>
<path fill="none" stroke="black" d="M296,-581.366C296,-573.152 296,-563.658 296,-554.725"/>
<polygon fill="black" stroke="black" points="299.5,-554.607 296,-544.607 292.5,-554.607 299.5,-554.607"/>
</g>
<!-- 140396642852200 -->
<g id="node29" class="node"><title>140396642852200</title>
<polygon fill="none" stroke="black" points="115,-415.5 115,-461.5 477,-461.5 477,-415.5 115,-415.5"/>
<text text-anchor="middle" x="193.5" y="-434.8" font-family="Times,serif" font-size="14.00">dropout_4: Dropout</text>
<polyline fill="none" stroke="black" points="272,-415.5 272,-461.5 "/>
<text text-anchor="middle" x="306" y="-446.3" font-family="Times,serif" font-size="14.00">input:</text>
<polyline fill="none" stroke="black" points="272,-438.5 340,-438.5 "/>
<text text-anchor="middle" x="306" y="-423.3" font-family="Times,serif" font-size="14.00">output:</text>
<polyline fill="none" stroke="black" points="340,-415.5 340,-461.5 "/>
<text text-anchor="middle" x="408.5" y="-446.3" font-family="Times,serif" font-size="14.00">(None, 3, 3, 128)</text>
<polyline fill="none" stroke="black" points="340,-438.5 477,-438.5 "/>
<text text-anchor="middle" x="408.5" y="-423.3" font-family="Times,serif" font-size="14.00">(None, 3, 3, 128)</text>
</g>
<!-- 140396642731064&#45;&gt;140396642852200 -->
<g id="edge28" class="edge"><title>140396642731064&#45;&gt;140396642852200</title>
<path fill="none" stroke="black" d="M296,-498.366C296,-490.152 296,-480.658 296,-471.725"/>
<polygon fill="black" stroke="black" points="299.5,-471.607 296,-461.607 292.5,-471.607 299.5,-471.607"/>
</g>
<!-- 140396642646728 -->
<g id="node30" class="node"><title>140396642646728</title>
<polygon fill="none" stroke="black" points="118,-332.5 118,-378.5 474,-378.5 474,-332.5 118,-332.5"/>
<text text-anchor="middle" x="193.5" y="-351.8" font-family="Times,serif" font-size="14.00">conv2d_8: Conv2D</text>
<polyline fill="none" stroke="black" points="269,-332.5 269,-378.5 "/>
<text text-anchor="middle" x="303" y="-363.3" font-family="Times,serif" font-size="14.00">input:</text>
<polyline fill="none" stroke="black" points="269,-355.5 337,-355.5 "/>
<text text-anchor="middle" x="303" y="-340.3" font-family="Times,serif" font-size="14.00">output:</text>
<polyline fill="none" stroke="black" points="337,-332.5 337,-378.5 "/>
<text text-anchor="middle" x="405.5" y="-363.3" font-family="Times,serif" font-size="14.00">(None, 3, 3, 128)</text>
<polyline fill="none" stroke="black" points="337,-355.5 474,-355.5 "/>
<text text-anchor="middle" x="405.5" y="-340.3" font-family="Times,serif" font-size="14.00">(None, 3, 3, 256)</text>
</g>
<!-- 140396642852200&#45;&gt;140396642646728 -->
<g id="edge29" class="edge"><title>140396642852200&#45;&gt;140396642646728</title>
<path fill="none" stroke="black" d="M296,-415.366C296,-407.152 296,-397.658 296,-388.725"/>
<polygon fill="black" stroke="black" points="299.5,-388.607 296,-378.607 292.5,-388.607 299.5,-388.607"/>
</g>
<!-- 140396670950872 -->
<g id="node31" class="node"><title>140396670950872</title>
<polygon fill="none" stroke="black" points="27.5,-249.5 27.5,-295.5 564.5,-295.5 564.5,-249.5 27.5,-249.5"/>
<text text-anchor="middle" x="193.5" y="-268.8" font-family="Times,serif" font-size="14.00">batch_normalization_9: BatchNormalization</text>
<polyline fill="none" stroke="black" points="359.5,-249.5 359.5,-295.5 "/>
<text text-anchor="middle" x="393.5" y="-280.3" font-family="Times,serif" font-size="14.00">input:</text>
<polyline fill="none" stroke="black" points="359.5,-272.5 427.5,-272.5 "/>
<text text-anchor="middle" x="393.5" y="-257.3" font-family="Times,serif" font-size="14.00">output:</text>
<polyline fill="none" stroke="black" points="427.5,-249.5 427.5,-295.5 "/>
<text text-anchor="middle" x="496" y="-280.3" font-family="Times,serif" font-size="14.00">(None, 3, 3, 256)</text>
<polyline fill="none" stroke="black" points="427.5,-272.5 564.5,-272.5 "/>
<text text-anchor="middle" x="496" y="-257.3" font-family="Times,serif" font-size="14.00">(None, 3, 3, 256)</text>
</g>
<!-- 140396642646728&#45;&gt;140396670950872 -->
<g id="edge30" class="edge"><title>140396642646728&#45;&gt;140396670950872</title>
<path fill="none" stroke="black" d="M296,-332.366C296,-324.152 296,-314.658 296,-305.725"/>
<polygon fill="black" stroke="black" points="299.5,-305.607 296,-295.607 292.5,-305.607 299.5,-305.607"/>
</g>
<!-- 140396671402896 -->
<g id="node32" class="node"><title>140396671402896</title>
<polygon fill="none" stroke="black" points="118,-166.5 118,-212.5 474,-212.5 474,-166.5 118,-166.5"/>
<text text-anchor="middle" x="193.5" y="-185.8" font-family="Times,serif" font-size="14.00">conv2d_9: Conv2D</text>
<polyline fill="none" stroke="black" points="269,-166.5 269,-212.5 "/>
<text text-anchor="middle" x="303" y="-197.3" font-family="Times,serif" font-size="14.00">input:</text>
<polyline fill="none" stroke="black" points="269,-189.5 337,-189.5 "/>
<text text-anchor="middle" x="303" y="-174.3" font-family="Times,serif" font-size="14.00">output:</text>
<polyline fill="none" stroke="black" points="337,-166.5 337,-212.5 "/>
<text text-anchor="middle" x="405.5" y="-197.3" font-family="Times,serif" font-size="14.00">(None, 3, 3, 256)</text>
<polyline fill="none" stroke="black" points="337,-189.5 474,-189.5 "/>
<text text-anchor="middle" x="405.5" y="-174.3" font-family="Times,serif" font-size="14.00">(None, 3, 3, 7)</text>
</g>
<!-- 140396670950872&#45;&gt;140396671402896 -->
<g id="edge31" class="edge"><title>140396670950872&#45;&gt;140396671402896</title>
<path fill="none" stroke="black" d="M296,-249.366C296,-241.152 296,-231.658 296,-222.725"/>
<polygon fill="black" stroke="black" points="299.5,-222.607 296,-212.607 292.5,-222.607 299.5,-222.607"/>
</g>
<!-- 140396566658912 -->
<g id="node33" class="node"><title>140396566658912</title>
<polygon fill="none" stroke="black" points="0,-83.5 0,-129.5 592,-129.5 592,-83.5 0,-83.5"/>
<text text-anchor="middle" x="202.5" y="-102.8" font-family="Times,serif" font-size="14.00">global_average_pooling2d_1: GlobalAveragePooling2D</text>
<polyline fill="none" stroke="black" points="405,-83.5 405,-129.5 "/>
<text text-anchor="middle" x="439" y="-114.3" font-family="Times,serif" font-size="14.00">input:</text>
<polyline fill="none" stroke="black" points="405,-106.5 473,-106.5 "/>
<text text-anchor="middle" x="439" y="-91.3" font-family="Times,serif" font-size="14.00">output:</text>
<polyline fill="none" stroke="black" points="473,-83.5 473,-129.5 "/>
<text text-anchor="middle" x="532.5" y="-114.3" font-family="Times,serif" font-size="14.00">(None, 3, 3, 7)</text>
<polyline fill="none" stroke="black" points="473,-106.5 592,-106.5 "/>
<text text-anchor="middle" x="532.5" y="-91.3" font-family="Times,serif" font-size="14.00">(None, 7)</text>
</g>
<!-- 140396671402896&#45;&gt;140396566658912 -->
<g id="edge32" class="edge"><title>140396671402896&#45;&gt;140396566658912</title>
<path fill="none" stroke="black" d="M296,-166.366C296,-158.152 296,-148.658 296,-139.725"/>
<polygon fill="black" stroke="black" points="299.5,-139.607 296,-129.607 292.5,-139.607 299.5,-139.607"/>
</g>
<!-- 140396566313728 -->
<g id="node34" class="node"><title>140396566313728</title>
<polygon fill="none" stroke="black" points="130.5,-0.5 130.5,-46.5 461.5,-46.5 461.5,-0.5 130.5,-0.5"/>
<text text-anchor="middle" x="220.5" y="-19.8" font-family="Times,serif" font-size="14.00">predictions: Activation</text>
<polyline fill="none" stroke="black" points="310.5,-0.5 310.5,-46.5 "/>
<text text-anchor="middle" x="344.5" y="-31.3" font-family="Times,serif" font-size="14.00">input:</text>
<polyline fill="none" stroke="black" points="310.5,-23.5 378.5,-23.5 "/>
<text text-anchor="middle" x="344.5" y="-8.3" font-family="Times,serif" font-size="14.00">output:</text>
<polyline fill="none" stroke="black" points="378.5,-0.5 378.5,-46.5 "/>
<text text-anchor="middle" x="420" y="-31.3" font-family="Times,serif" font-size="14.00">(None, 7)</text>
<polyline fill="none" stroke="black" points="378.5,-23.5 461.5,-23.5 "/>
<text text-anchor="middle" x="420" y="-8.3" font-family="Times,serif" font-size="14.00">(None, 7)</text>
</g>
<!-- 140396566658912&#45;&gt;140396566313728 -->
<g id="edge33" class="edge"><title>140396566658912&#45;&gt;140396566313728</title>
<path fill="none" stroke="black" d="M296,-83.3664C296,-75.1516 296,-65.6579 296,-56.7252"/>
<polygon fill="black" stroke="black" points="299.5,-56.6068 296,-46.6068 292.5,-56.6069 299.5,-56.6068"/>
</g>
</g>
</svg>
